<?xml version="1.0" encoding="UTF-8" standalone="no"?>
<!-- Svg Vector Icons : http://www.onlinewebfonts.com/icon -->

<svg
   xmlns:dc="http://purl.org/dc/elements/1.1/"
   xmlns:cc="http://creativecommons.org/ns#"
   xmlns:rdf="http://www.w3.org/1999/02/22-rdf-syntax-ns#"
   xmlns:svg="http://www.w3.org/2000/svg"
   xmlns="http://www.w3.org/2000/svg"
   xmlns:sodipodi="http://sodipodi.sourceforge.net/DTD/sodipodi-0.dtd"
   xmlns:inkscape="http://www.inkscape.org/namespaces/inkscape"
   inkscape:version="0.92.5 (2060ec1f9f, 2020-04-08)"
   sodipodi:docname="cv2.svg"
   id="svg18"
   xml:space="preserve"
   enable-background="new 0 0 1000 1000"
   viewBox="0 0 1000 1000"
   y="0px"
   x="0px"
   version="1.1"><defs
   id="defs22" /><sodipodi:namedview
   id="namedview20"
   pagecolor="#ffffff"
   bordercolor="#666666"
   borderopacity="1.0"
   inkscape:pageshadow="2"
   inkscape:pageopacity="0"
   inkscape:pagecheckerboard="true"
   showgrid="false"
   inkscape:zoom="0.99992552"
   inkscape:cx="569.57307"
   inkscape:cy="580.05671"
   inkscape:window-width="2560"
   inkscape:window-height="1412"
   inkscape:window-x="2560"
   inkscape:window-y="0"
   inkscape:window-maximized="1"
   inkscape:current-layer="g16" />
<metadata
   id="metadata2"> Svg Vector Icons : http://www.onlinewebfonts.com/icon <rdf:RDF><cc:Work
     rdf:about=""><dc:format>image/svg+xml</dc:format><dc:type
       rdf:resource="http://purl.org/dc/dcmitype/StillImage" /><dc:title></dc:title></cc:Work></rdf:RDF></metadata>
<g
   id="g16"
   style="fill:#000000"><g
     id="g848"><g
       id="g835"><g
         transform="matrix(0.1,0,0,-0.1,0,513.00089)"
         id="g14"
         style="fill:#ffffff;fill-opacity:1"><path
           d="m 1719.3,4993.2 c -170.4,-61.3 -302.5,-193.4 -367.6,-361.8 -26.8,-72.8 -28.7,-518.8 -24.9,-4550.8 l 5.7,-4470.4 51.7,-88 c 67,-114.9 199.1,-233.6 304.4,-273.8 78.5,-28.7 329.3,-30.6 3338.9,-26.8 3097.7,5.7 3258.5,7.7 3317.9,40.2 113,61.3 220.2,174.2 275.7,291 l 53.6,114.9 v 3783.1 c 0,3390.6 -3.8,3792.7 -30.6,3876.9 -26.8,84.2 -101.5,164.6 -788.8,848.1 -583.9,578.2 -783,763.9 -855.8,798.4 l -95.7,45.9 -2555.9,-1.9 c -2100.2,-0.1 -2569.3,-3.9 -2628.6,-25 z M 6626.2,3890.4 c 0,-802.2 3.8,-832.8 113,-888.3 49.8,-26.8 162.7,-30.6 796.4,-30.6 h 737.1 V -662.3 c 0,-3237.5 -3.8,-3639.5 -30.6,-3675.9 l -28.7,-42.1 H 4998.8 c -2896.7,0 -3216.4,3.8 -3243.2,30.6 -26.8,26.8 -30.6,457.6 -30.6,4457 0,4621.7 -1.9,4468.5 76.6,4497.2 15.3,5.7 1108.5,11.5 2427.6,11.5 l 2397,1.9 z m 938.1,3.9 c 273.8,-268 497.8,-494 497.8,-503.5 0,-11.5 -202.9,-15.3 -511.2,-13.4 l -513.1,5.7 -5.7,503.5 c -1.9,331.2 1.9,503.5 15.3,497.8 9.5,-1.9 243.1,-224 516.9,-490.1 z"
           id="path4"
           style="fill:#ffffff;fill-opacity:0"
           inkscape:connector-curvature="0" /><path
           d="m 4462.8,1300.1 c -530.3,-180 -830.9,-783 -650.9,-1303.8 53.6,-157 122.5,-269.9 245.1,-398.2 197.2,-206.8 405.9,-302.5 664.3,-302.5 247,0 522.7,120.6 675.8,294.8 107.2,124.4 68.9,287.2 -80.4,336.9 -80.4,26.8 -151.3,1.9 -241.2,-86.1 -249,-241.2 -683.6,-168.5 -840.6,141.7 -86.2,166.6 -95.7,405.9 -28.7,605 47.9,135.9 199.1,283.3 333.1,323.5 206.8,61.3 371.4,26.8 534.1,-112.9 70.8,-61.3 118.7,-86.2 157,-86.2 124.4,0 206.8,82.3 208.7,206.8 0,99.6 -67,180 -239.3,281.4 -245,145.5 -501.5,180 -737,99.6 z"
           id="path6"
           style="fill:#ffffff;fill-opacity:0"
           inkscape:connector-curvature="0" /><path
           d="m 5799.1,1248.4 c -59.3,-45.9 -99.6,-137.8 -86.2,-193.4 5.8,-21.1 158.9,-405.9 342.7,-853.9 202.9,-499.7 348.4,-830.9 377.2,-859.6 59.3,-59.4 185.7,-63.2 256.5,-7.7 36.4,28.7 130.2,245.1 386.7,884.5 371.4,928.5 369.5,924.7 256.6,1018.5 -68.9,59.3 -155.1,65.1 -237.4,15.3 C 7045.4,1221.5 7009,1144.9 6809.9,643.3 6685.5,329.3 6576.3,65.1 6570.6,57.5 6563,48 6450,306.4 6319.8,628.1 6111.1,1145 6076.7,1219.7 6025,1250.3 c -76.6,46 -166.5,46 -225.9,-1.9 z"
           id="path8"
           style="fill:#ffffff;fill-opacity:0"
           inkscape:connector-curvature="0" /><path
           d="m 2728.2,-1527.7 c -126.4,-51.7 -162.7,-229.7 -67,-327.4 l 55.5,-55.5 h 2280.2 2280.2 l 59.3,53.6 c 49.8,44 61.3,68.9 61.3,130.2 0,95.7 -47.9,170.4 -124.4,197.2 -72.8,24.9 -4483.8,26.8 -4545.1,1.9 z"
           id="path10"
           style="fill:#ffffff;fill-opacity:0"
           inkscape:connector-curvature="0" /><path
           d="m 2670.8,-2818.1 c -93.8,-93.8 -86.1,-218.2 19.1,-302.5 38.3,-30.6 187.6,-34.5 2310.8,-34.5 2247.6,0 2272.5,0 2320.4,38.3 72.7,57.4 99.6,153.2 63.2,235.5 -55.5,137.8 105.3,128.3 -2397,128.3 H 2735.9 Z"
           id="path12"
           style="fill:#ffffff;fill-opacity:0"
           inkscape:connector-curvature="0" /></g><path
         style="fill:#000000;fill-opacity:0.89078525;stroke:none;stroke-width:1px;stroke-linecap:butt;stroke-linejoin:miter;stroke-opacity:1"
         d="m 203.38143,948.39904 c -20.50663,-0.53463 -26.40989,-1.04524 -27.21878,-2.3543 -0.56809,-0.91939 -1.39777,-12.00713 -1.84372,-24.63943 -1.33034,-37.68418 -0.0141,-853.835229 1.38772,-860.48671 0.67094,-3.183472 2.01746,-6.585702 2.99227,-7.56051 1.54504,-1.545041 32.63262,-1.868484 242.36606,-2.52164 l 240.59367,-0.749261 0.0394,56.987651 c 0.0216,31.34322 0.51964,65.23932 1.10661,75.32468 1.24772,21.43829 2.75333,25.78619 10.27227,29.66415 4.67991,2.41369 6.78159,2.48937 79.06915,2.8472 l 74.26147,0.3676 -0.3432,362.61316 c -0.3322,351.00182 -0.41493,362.7575 -2.5835,367.12039 l -2.24031,4.50721 -295.83661,-0.21875 c -162.71013,-0.1203 -307.62026,-0.52595 -322.02249,-0.90144 z m 509.65959,-121.3435 c 15.79285,-0.8443 17.37442,-1.14272 20.29548,-3.82935 4.79529,-4.41047 8.03314,-12.50885 7.06485,-17.6703 -1.6467,-8.77763 -4.22671,-13.30323 -8.36218,-14.66805 -9.46632,-3.12417 -38.3748,-3.54905 -244.10863,-3.58774 l -215.19446,-0.0405 -4.98813,5.10817 c -7.87486,8.0644 -9.71398,16.7014 -5.30631,24.91997 4.39159,8.1886 6.53688,8.9277 28.19329,9.71315 29.24948,1.06087 402.68085,1.10916 422.40609,0.0547 z M 734.53315,697.8745 c 5.07577,-5.07577 5.2505,-5.49973 5.2505,-12.73903 0,-8.88051 -2.39835,-14.639 -7.6602,-18.39231 -3.70981,-2.64624 -4.44482,-2.69054 -57.24364,-3.44977 -68.67904,-0.98758 -310.47344,-0.98185 -363.20481,0.008 l -40.48845,0.7607 -3.83025,3.60577 c -9.5036,8.94663 -9.57204,22.09946 -0.16729,32.15144 l 3.09246,3.30529 H 499.78206 729.28264 Z M 496.94873,579.34459 c 19.61355,-5.62237 42.06101,-20.80061 47.06976,-31.82708 6.32015,-13.91345 -1.52183,-28.00645 -16.26437,-29.22902 -7.50097,-0.62204 -11.69632,1.21277 -20.54258,8.98417 -17.5342,15.40371 -39.97433,18.38733 -60.61801,8.05972 -19.13003,-9.57037 -29.37984,-28.62334 -29.35298,-54.56315 0.0225,-21.65552 4.27208,-32.93667 17.32507,-45.99121 9.12634,-9.12743 16.75295,-13.1924 28.77573,-15.33737 14.23204,-2.53915 27.34206,1.05942 40.66465,11.16204 4.40728,3.34208 9.63583,7.07046 11.619,8.2853 7.97752,4.88681 20.88486,1.16432 25.70594,-7.41363 3.91343,-6.96303 3.74788,-16.66916 -0.39099,-22.92341 -7.21433,-10.90159 -30.12131,-24.28942 -49.35341,-28.84429 -29.98304,-7.10108 -60.8218,2.53703 -84.78184,26.49708 -21.59042,21.59041 -32.30876,49.15532 -30.83615,79.30292 0.80037,16.38547 2.81649,24.48787 9.73739,39.13276 13.508,28.58346 42.25174,52.14149 69.60937,57.05101 9.98493,1.79187 31.41045,0.58464 41.63342,-2.34584 z m 169.21288,1.56409 c 3.66463,-1.73898 5.16113,-3.89706 10.62666,-15.32452 11.14183,-23.2956 54.59473,-131.82884 60.73477,-151.69852 3.01363,-9.75237 3.41871,-18.60774 0.98629,-21.56066 -0.95177,-1.15541 -3.83988,-3.63318 -6.41803,-5.50613 -6.22126,-4.5196 -16.28271,-4.81963 -22.47846,-0.67034 -5.66243,3.79213 -9.3132,11.5519 -32.25581,68.56031 -10.82302,26.89332 -20.07693,48.89695 -20.56427,48.89695 -1.15191,0 -8.6431,-17.15492 -27.63087,-63.27505 -14.7782,-35.8953 -19.72676,-46.84312 -23.06322,-51.02341 -2.84562,-3.56531 -9.10879,-5.89385 -15.85292,-5.89385 -5.76076,0 -7.20931,0.51 -11.06568,3.89594 -4.70597,4.1319 -8.79737,11.68772 -8.84118,16.32751 -0.0424,4.49963 52.45843,133.54125 65.46011,160.89393 5.0308,10.58368 7.28435,14.02944 10.42943,15.94689 4.98448,3.03889 14.02544,3.23436 19.93318,0.43095 z"
         id="path1100"
         inkscape:connector-curvature="0" /><rect
         style="fill:#000000;fill-opacity:0.89078525;stroke:none;stroke-width:0.99999899;stroke-miterlimit:10"
         id="rect6252"
         width="144.57224"
         height="151.81512"
         x="675.44281"
         y="46.666225" /><path
         style="fill:#000000;fill-opacity:0.89078525;stroke:none;stroke-width:0.99999899px;stroke-linecap:butt;stroke-linejoin:miter;stroke-opacity:1"
         d="m 685.65952,39.67583 c 144.57224,151.81513 144.57224,151.81513 0,0 z"
         id="path7422"
         inkscape:connector-curvature="0" /><path
         style="fill:#ffffff;fill-opacity:0.97610922;stroke:none;stroke-width:0.99999899px;stroke-linecap:butt;stroke-linejoin:miter;stroke-opacity:1"
         d="M 675.44277,46.666225 C 820.01501,198.48136 820.01501,198.48136 820.01501,198.48136 V 46.666225 Z"
         id="path8513"
         inkscape:connector-curvature="0" /></g></g></g>
</svg>